<?xml version="1.0" encoding="utf-8" standalone="no"?>
<!DOCTYPE svg PUBLIC "-//W3C//DTD SVG 1.1//EN"
  "http://www.w3.org/Graphics/SVG/1.1/DTD/svg11.dtd">
<svg xmlns:xlink="http://www.w3.org/1999/xlink" width="1152pt" height="648pt" viewBox="0 0 1152 648" xmlns="http://www.w3.org/2000/svg" version="1.1">
 <metadata>
  <rdf:RDF xmlns:dc="http://purl.org/dc/elements/1.1/" xmlns:cc="http://creativecommons.org/ns#" xmlns:rdf="http://www.w3.org/1999/02/22-rdf-syntax-ns#">
   <cc:Work>
    <dc:type rdf:resource="http://purl.org/dc/dcmitype/StillImage"/>
    <dc:date>2026-02-22T11:19:37.812335</dc:date>
    <dc:format>image/svg+xml</dc:format>
    <dc:creator>
     <cc:Agent>
      <dc:title>Matplotlib v3.10.8, https://matplotlib.org/</dc:title>
     </cc:Agent>
    </dc:creator>
   </cc:Work>
  </rdf:RDF>
 </metadata>
 <defs>
  <style type="text/css">*{stroke-linejoin: round; stroke-linecap: butt}</style>
 </defs>
 <g id="figure_1">
  <g id="patch_1">
   <path d="M 0 648 
L 1152 648 
L 1152 0 
L 0 0 
z
" style="fill: #ffffff"/>
  </g>
  <g id="axes_1">
   <g id="patch_2">
    <path d="M 222.75 421.44 
C 248.981239 421.44 274.141645 411.173107 292.689932 392.900485 
C 311.238218 374.627863 321.66 349.84139 321.66 324 
C 321.66 298.15861 311.238218 273.372137 292.689932 255.099515 
C 274.141645 236.826893 248.981239 226.56 222.75 226.56 
C 196.518761 226.56 171.358355 236.826893 152.810068 255.099515 
C 134.261782 273.372137 123.84 298.15861 123.84 324 
C 123.84 349.84139 134.261782 374.627863 152.810068 392.900485 
C 171.358355 411.173107 196.518761 421.44 222.75 421.44 
z
" clip-path="url(#pfb45e8e0ee)" style="fill: #ffffff; stroke: #e74c3c; stroke-width: 3; stroke-linejoin: miter"/>
   </g>
   <g id="patch_3">
    <path d="M 491.0787 463.3392 
L 660.9213 463.3392 
Q 717.4413 463.3392 717.4413 407.6592 
L 717.4413 240.3408 
Q 717.4413 184.6608 660.9213 184.6608 
L 491.0787 184.6608 
Q 434.5587 184.6608 434.5587 240.3408 
L 434.5587 407.6592 
Q 434.5587 463.3392 491.0787 463.3392 
z
" clip-path="url(#pfb45e8e0ee)" style="fill: #ffffff; stroke: #2c3e50; stroke-width: 3; stroke-linejoin: miter"/>
   </g>
   <g id="patch_4">
    <path d="M 879.6537 463.3392 
L 1014.1713 463.3392 
Q 1070.6913 463.3392 1070.6913 407.6592 
L 1070.6913 240.3408 
Q 1070.6913 184.6608 1014.1713 184.6608 
L 879.6537 184.6608 
Q 823.1337 184.6608 823.1337 240.3408 
L 823.1337 407.6592 
Q 823.1337 463.3392 879.6537 463.3392 
z
" clip-path="url(#pfb45e8e0ee)" style="fill: #ffffff; stroke: #27ae60; stroke-width: 3; stroke-linejoin: miter"/>
   </g>
   <g id="text_1">
    <!-- ROS -->
    <g style="fill: #e74c3c" transform="translate(201.687188 268.32) scale(0.18 -0.18)">
     <defs>
      <path id="DejaVuSans-Bold-52" d="M 2297 2597 
Q 2675 2597 2839 2737 
Q 3003 2878 3003 3200 
Q 3003 3519 2839 3656 
Q 2675 3794 2297 3794 
L 1791 3794 
L 1791 2597 
L 2297 2597 
z
M 1791 1766 
L 1791 0 
L 588 0 
L 588 4666 
L 2425 4666 
Q 3347 4666 3776 4356 
Q 4206 4047 4206 3378 
Q 4206 2916 3982 2619 
Q 3759 2322 3309 2181 
Q 3556 2125 3751 1926 
Q 3947 1728 4147 1325 
L 4800 0 
L 3519 0 
L 2950 1159 
Q 2778 1509 2601 1637 
Q 2425 1766 2131 1766 
L 1791 1766 
z
" transform="scale(0.015625)"/>
      <path id="DejaVuSans-Bold-4f" d="M 2719 3878 
Q 2169 3878 1866 3472 
Q 1563 3066 1563 2328 
Q 1563 1594 1866 1187 
Q 2169 781 2719 781 
Q 3272 781 3575 1187 
Q 3878 1594 3878 2328 
Q 3878 3066 3575 3472 
Q 3272 3878 2719 3878 
z
M 2719 4750 
Q 3844 4750 4481 4106 
Q 5119 3463 5119 2328 
Q 5119 1197 4481 553 
Q 3844 -91 2719 -91 
Q 1597 -91 958 553 
Q 319 1197 319 2328 
Q 319 3463 958 4106 
Q 1597 4750 2719 4750 
z
" transform="scale(0.015625)"/>
      <path id="DejaVuSans-Bold-53" d="M 3834 4519 
L 3834 3531 
Q 3450 3703 3084 3790 
Q 2719 3878 2394 3878 
Q 1963 3878 1756 3759 
Q 1550 3641 1550 3391 
Q 1550 3203 1689 3098 
Q 1828 2994 2194 2919 
L 2706 2816 
Q 3484 2659 3812 2340 
Q 4141 2022 4141 1434 
Q 4141 663 3683 286 
Q 3225 -91 2284 -91 
Q 1841 -91 1394 -6 
Q 947 78 500 244 
L 500 1259 
Q 947 1022 1364 901 
Q 1781 781 2169 781 
Q 2563 781 2772 912 
Q 2981 1044 2981 1288 
Q 2981 1506 2839 1625 
Q 2697 1744 2272 1838 
L 1806 1941 
Q 1106 2091 782 2419 
Q 459 2747 459 3303 
Q 459 4000 909 4375 
Q 1359 4750 2203 4750 
Q 2588 4750 2994 4692 
Q 3400 4634 3834 4519 
z
" transform="scale(0.015625)"/>
     </defs>
     <use xlink:href="#DejaVuSans-Bold-52"/>
     <use xlink:href="#DejaVuSans-Bold-4f" transform="translate(77.001953 0)"/>
     <use xlink:href="#DejaVuSans-Bold-53" transform="translate(162.011719 0)"/>
    </g>
   </g>
   <g id="text_2">
    <!-- Oxidative -->
    <g transform="translate(194.060625 345.362625) scale(0.12 -0.12)">
     <defs>
      <path id="DejaVuSans-4f" d="M 2522 4238 
Q 1834 4238 1429 3725 
Q 1025 3213 1025 2328 
Q 1025 1447 1429 934 
Q 1834 422 2522 422 
Q 3209 422 3611 934 
Q 4013 1447 4013 2328 
Q 4013 3213 3611 3725 
Q 3209 4238 2522 4238 
z
M 2522 4750 
Q 3503 4750 4090 4092 
Q 4678 3434 4678 2328 
Q 4678 1225 4090 567 
Q 3503 -91 2522 -91 
Q 1538 -91 948 565 
Q 359 1222 359 2328 
Q 359 3434 948 4092 
Q 1538 4750 2522 4750 
z
" transform="scale(0.015625)"/>
      <path id="DejaVuSans-78" d="M 3513 3500 
L 2247 1797 
L 3578 0 
L 2900 0 
L 1881 1375 
L 863 0 
L 184 0 
L 1544 1831 
L 300 3500 
L 978 3500 
L 1906 2253 
L 2834 3500 
L 3513 3500 
z
" transform="scale(0.015625)"/>
      <path id="DejaVuSans-69" d="M 603 3500 
L 1178 3500 
L 1178 0 
L 603 0 
L 603 3500 
z
M 603 4863 
L 1178 4863 
L 1178 4134 
L 603 4134 
L 603 4863 
z
" transform="scale(0.015625)"/>
      <path id="DejaVuSans-64" d="M 2906 2969 
L 2906 4863 
L 3481 4863 
L 3481 0 
L 2906 0 
L 2906 525 
Q 2725 213 2448 61 
Q 2172 -91 1784 -91 
Q 1150 -91 751 415 
Q 353 922 353 1747 
Q 353 2572 751 3078 
Q 1150 3584 1784 3584 
Q 2172 3584 2448 3432 
Q 2725 3281 2906 2969 
z
M 947 1747 
Q 947 1113 1208 752 
Q 1469 391 1925 391 
Q 2381 391 2643 752 
Q 2906 1113 2906 1747 
Q 2906 2381 2643 2742 
Q 2381 3103 1925 3103 
Q 1469 3103 1208 2742 
Q 947 2381 947 1747 
z
" transform="scale(0.015625)"/>
      <path id="DejaVuSans-61" d="M 2194 1759 
Q 1497 1759 1228 1600 
Q 959 1441 959 1056 
Q 959 750 1161 570 
Q 1363 391 1709 391 
Q 2188 391 2477 730 
Q 2766 1069 2766 1631 
L 2766 1759 
L 2194 1759 
z
M 3341 1997 
L 3341 0 
L 2766 0 
L 2766 531 
Q 2569 213 2275 61 
Q 1981 -91 1556 -91 
Q 1019 -91 701 211 
Q 384 513 384 1019 
Q 384 1609 779 1909 
Q 1175 2209 1959 2209 
L 2766 2209 
L 2766 2266 
Q 2766 2663 2505 2880 
Q 2244 3097 1772 3097 
Q 1472 3097 1187 3025 
Q 903 2953 641 2809 
L 641 3341 
Q 956 3463 1253 3523 
Q 1550 3584 1831 3584 
Q 2591 3584 2966 3190 
Q 3341 2797 3341 1997 
z
" transform="scale(0.015625)"/>
      <path id="DejaVuSans-74" d="M 1172 4494 
L 1172 3500 
L 2356 3500 
L 2356 3053 
L 1172 3053 
L 1172 1153 
Q 1172 725 1289 603 
Q 1406 481 1766 481 
L 2356 481 
L 2356 0 
L 1766 0 
Q 1100 0 847 248 
Q 594 497 594 1153 
L 594 3053 
L 172 3053 
L 172 3500 
L 594 3500 
L 594 4494 
L 1172 4494 
z
" transform="scale(0.015625)"/>
      <path id="DejaVuSans-76" d="M 191 3500 
L 800 3500 
L 1894 563 
L 2988 3500 
L 3597 3500 
L 2284 0 
L 1503 0 
L 191 3500 
z
" transform="scale(0.015625)"/>
      <path id="DejaVuSans-65" d="M 3597 1894 
L 3597 1613 
L 953 1613 
Q 991 1019 1311 708 
Q 1631 397 2203 397 
Q 2534 397 2845 478 
Q 3156 559 3463 722 
L 3463 178 
Q 3153 47 2828 -22 
Q 2503 -91 2169 -91 
Q 1331 -91 842 396 
Q 353 884 353 1716 
Q 353 2575 817 3079 
Q 1281 3584 2069 3584 
Q 2775 3584 3186 3129 
Q 3597 2675 3597 1894 
z
M 3022 2063 
Q 3016 2534 2758 2815 
Q 2500 3097 2075 3097 
Q 1594 3097 1305 2825 
Q 1016 2553 972 2059 
L 3022 2063 
z
" transform="scale(0.015625)"/>
     </defs>
     <use xlink:href="#DejaVuSans-4f"/>
     <use xlink:href="#DejaVuSans-78" transform="translate(78.710938 0)"/>
     <use xlink:href="#DejaVuSans-69" transform="translate(137.890625 0)"/>
     <use xlink:href="#DejaVuSans-64" transform="translate(165.673828 0)"/>
     <use xlink:href="#DejaVuSans-61" transform="translate(229.150391 0)"/>
     <use xlink:href="#DejaVuSans-74" transform="translate(290.429688 0)"/>
     <use xlink:href="#DejaVuSans-69" transform="translate(329.638672 0)"/>
     <use xlink:href="#DejaVuSans-76" transform="translate(357.421875 0)"/>
     <use xlink:href="#DejaVuSans-65" transform="translate(416.601562 0)"/>
    </g>
    <!-- Stress -->
    <g transform="translate(204.314063 358.8) scale(0.12 -0.12)">
     <defs>
      <path id="DejaVuSans-53" d="M 3425 4513 
L 3425 3897 
Q 3066 4069 2747 4153 
Q 2428 4238 2131 4238 
Q 1616 4238 1336 4038 
Q 1056 3838 1056 3469 
Q 1056 3159 1242 3001 
Q 1428 2844 1947 2747 
L 2328 2669 
Q 3034 2534 3370 2195 
Q 3706 1856 3706 1288 
Q 3706 609 3251 259 
Q 2797 -91 1919 -91 
Q 1588 -91 1214 -16 
Q 841 59 441 206 
L 441 856 
Q 825 641 1194 531 
Q 1563 422 1919 422 
Q 2459 422 2753 634 
Q 3047 847 3047 1241 
Q 3047 1584 2836 1778 
Q 2625 1972 2144 2069 
L 1759 2144 
Q 1053 2284 737 2584 
Q 422 2884 422 3419 
Q 422 4038 858 4394 
Q 1294 4750 2059 4750 
Q 2388 4750 2728 4690 
Q 3069 4631 3425 4513 
z
" transform="scale(0.015625)"/>
      <path id="DejaVuSans-72" d="M 2631 2963 
Q 2534 3019 2420 3045 
Q 2306 3072 2169 3072 
Q 1681 3072 1420 2755 
Q 1159 2438 1159 1844 
L 1159 0 
L 581 0 
L 581 3500 
L 1159 3500 
L 1159 2956 
Q 1341 3275 1631 3429 
Q 1922 3584 2338 3584 
Q 2397 3584 2469 3576 
Q 2541 3569 2628 3553 
L 2631 2963 
z
" transform="scale(0.015625)"/>
      <path id="DejaVuSans-73" d="M 2834 3397 
L 2834 2853 
Q 2591 2978 2328 3040 
Q 2066 3103 1784 3103 
Q 1356 3103 1142 2972 
Q 928 2841 928 2578 
Q 928 2378 1081 2264 
Q 1234 2150 1697 2047 
L 1894 2003 
Q 2506 1872 2764 1633 
Q 3022 1394 3022 966 
Q 3022 478 2636 193 
Q 2250 -91 1575 -91 
Q 1294 -91 989 -36 
Q 684 19 347 128 
L 347 722 
Q 666 556 975 473 
Q 1284 391 1588 391 
Q 1994 391 2212 530 
Q 2431 669 2431 922 
Q 2431 1156 2273 1281 
Q 2116 1406 1581 1522 
L 1381 1569 
Q 847 1681 609 1914 
Q 372 2147 372 2553 
Q 372 3047 722 3315 
Q 1072 3584 1716 3584 
Q 2034 3584 2315 3537 
Q 2597 3491 2834 3397 
z
" transform="scale(0.015625)"/>
     </defs>
     <use xlink:href="#DejaVuSans-53"/>
     <use xlink:href="#DejaVuSans-74" transform="translate(63.476562 0)"/>
     <use xlink:href="#DejaVuSans-72" transform="translate(102.685547 0)"/>
     <use xlink:href="#DejaVuSans-65" transform="translate(141.548828 0)"/>
     <use xlink:href="#DejaVuSans-73" transform="translate(203.072266 0)"/>
     <use xlink:href="#DejaVuSans-73" transform="translate(255.171875 0)"/>
    </g>
   </g>
   <g id="patch_5">
    <path d="M 323.65738 324 
Q 378.177314 324 430.46118 324 
" style="fill: none; stroke: #000000; stroke-width: 2; stroke-linecap: round"/>
    <path d="M 426.46118 322 
L 430.46118 324 
L 426.46118 326 
" style="fill: none; stroke: #000000; stroke-width: 2; stroke-linecap: round"/>
   </g>
   <g id="text_3">
    <!-- Chromatin-Centred -->
    <g style="fill: #2c3e50" transform="translate(489.7625 233.52) scale(0.16 -0.16)">
     <defs>
      <path id="DejaVuSans-Bold-43" d="M 4288 256 
Q 3956 84 3597 -3 
Q 3238 -91 2847 -91 
Q 1681 -91 1000 561 
Q 319 1213 319 2328 
Q 319 3447 1000 4098 
Q 1681 4750 2847 4750 
Q 3238 4750 3597 4662 
Q 3956 4575 4288 4403 
L 4288 3438 
Q 3953 3666 3628 3772 
Q 3303 3878 2944 3878 
Q 2300 3878 1931 3465 
Q 1563 3053 1563 2328 
Q 1563 1606 1931 1193 
Q 2300 781 2944 781 
Q 3303 781 3628 887 
Q 3953 994 4288 1222 
L 4288 256 
z
" transform="scale(0.015625)"/>
      <path id="DejaVuSans-Bold-68" d="M 4056 2131 
L 4056 0 
L 2931 0 
L 2931 347 
L 2931 1625 
Q 2931 2084 2911 2256 
Q 2891 2428 2841 2509 
Q 2775 2619 2662 2680 
Q 2550 2741 2406 2741 
Q 2056 2741 1856 2470 
Q 1656 2200 1656 1722 
L 1656 0 
L 538 0 
L 538 4863 
L 1656 4863 
L 1656 2988 
Q 1909 3294 2193 3439 
Q 2478 3584 2822 3584 
Q 3428 3584 3742 3212 
Q 4056 2841 4056 2131 
z
" transform="scale(0.015625)"/>
      <path id="DejaVuSans-Bold-72" d="M 3138 2547 
Q 2991 2616 2845 2648 
Q 2700 2681 2553 2681 
Q 2122 2681 1889 2404 
Q 1656 2128 1656 1613 
L 1656 0 
L 538 0 
L 538 3500 
L 1656 3500 
L 1656 2925 
Q 1872 3269 2151 3426 
Q 2431 3584 2822 3584 
Q 2878 3584 2943 3579 
Q 3009 3575 3134 3559 
L 3138 2547 
z
" transform="scale(0.015625)"/>
      <path id="DejaVuSans-Bold-6f" d="M 2203 2784 
Q 1831 2784 1636 2517 
Q 1441 2250 1441 1747 
Q 1441 1244 1636 976 
Q 1831 709 2203 709 
Q 2569 709 2762 976 
Q 2956 1244 2956 1747 
Q 2956 2250 2762 2517 
Q 2569 2784 2203 2784 
z
M 2203 3584 
Q 3106 3584 3614 3096 
Q 4122 2609 4122 1747 
Q 4122 884 3614 396 
Q 3106 -91 2203 -91 
Q 1297 -91 786 396 
Q 275 884 275 1747 
Q 275 2609 786 3096 
Q 1297 3584 2203 3584 
z
" transform="scale(0.015625)"/>
      <path id="DejaVuSans-Bold-6d" d="M 3781 2919 
Q 3994 3244 4286 3414 
Q 4578 3584 4928 3584 
Q 5531 3584 5847 3212 
Q 6163 2841 6163 2131 
L 6163 0 
L 5038 0 
L 5038 1825 
Q 5041 1866 5042 1909 
Q 5044 1953 5044 2034 
Q 5044 2406 4934 2573 
Q 4825 2741 4581 2741 
Q 4263 2741 4089 2478 
Q 3916 2216 3909 1719 
L 3909 0 
L 2784 0 
L 2784 1825 
Q 2784 2406 2684 2573 
Q 2584 2741 2328 2741 
Q 2006 2741 1831 2477 
Q 1656 2213 1656 1722 
L 1656 0 
L 531 0 
L 531 3500 
L 1656 3500 
L 1656 2988 
Q 1863 3284 2130 3434 
Q 2397 3584 2719 3584 
Q 3081 3584 3359 3409 
Q 3638 3234 3781 2919 
z
" transform="scale(0.015625)"/>
      <path id="DejaVuSans-Bold-61" d="M 2106 1575 
Q 1756 1575 1579 1456 
Q 1403 1338 1403 1106 
Q 1403 894 1545 773 
Q 1688 653 1941 653 
Q 2256 653 2472 879 
Q 2688 1106 2688 1447 
L 2688 1575 
L 2106 1575 
z
M 3816 1997 
L 3816 0 
L 2688 0 
L 2688 519 
Q 2463 200 2181 54 
Q 1900 -91 1497 -91 
Q 953 -91 614 226 
Q 275 544 275 1050 
Q 275 1666 698 1953 
Q 1122 2241 2028 2241 
L 2688 2241 
L 2688 2328 
Q 2688 2594 2478 2717 
Q 2269 2841 1825 2841 
Q 1466 2841 1156 2769 
Q 847 2697 581 2553 
L 581 3406 
Q 941 3494 1303 3539 
Q 1666 3584 2028 3584 
Q 2975 3584 3395 3211 
Q 3816 2838 3816 1997 
z
" transform="scale(0.015625)"/>
      <path id="DejaVuSans-Bold-74" d="M 1759 4494 
L 1759 3500 
L 2913 3500 
L 2913 2700 
L 1759 2700 
L 1759 1216 
Q 1759 972 1856 886 
Q 1953 800 2241 800 
L 2816 800 
L 2816 0 
L 1856 0 
Q 1194 0 917 276 
Q 641 553 641 1216 
L 641 2700 
L 84 2700 
L 84 3500 
L 641 3500 
L 641 4494 
L 1759 4494 
z
" transform="scale(0.015625)"/>
      <path id="DejaVuSans-Bold-69" d="M 538 3500 
L 1656 3500 
L 1656 0 
L 538 0 
L 538 3500 
z
M 538 4863 
L 1656 4863 
L 1656 3950 
L 538 3950 
L 538 4863 
z
" transform="scale(0.015625)"/>
      <path id="DejaVuSans-Bold-6e" d="M 4056 2131 
L 4056 0 
L 2931 0 
L 2931 347 
L 2931 1631 
Q 2931 2084 2911 2256 
Q 2891 2428 2841 2509 
Q 2775 2619 2662 2680 
Q 2550 2741 2406 2741 
Q 2056 2741 1856 2470 
Q 1656 2200 1656 1722 
L 1656 0 
L 538 0 
L 538 3500 
L 1656 3500 
L 1656 2988 
Q 1909 3294 2193 3439 
Q 2478 3584 2822 3584 
Q 3428 3584 3742 3212 
Q 4056 2841 4056 2131 
z
" transform="scale(0.015625)"/>
      <path id="DejaVuSans-Bold-2d" d="M 347 2297 
L 2309 2297 
L 2309 1388 
L 347 1388 
L 347 2297 
z
" transform="scale(0.015625)"/>
      <path id="DejaVuSans-Bold-65" d="M 4031 1759 
L 4031 1441 
L 1416 1441 
Q 1456 1047 1700 850 
Q 1944 653 2381 653 
Q 2734 653 3104 758 
Q 3475 863 3866 1075 
L 3866 213 
Q 3469 63 3072 -14 
Q 2675 -91 2278 -91 
Q 1328 -91 801 392 
Q 275 875 275 1747 
Q 275 2603 792 3093 
Q 1309 3584 2216 3584 
Q 3041 3584 3536 3087 
Q 4031 2591 4031 1759 
z
M 2881 2131 
Q 2881 2450 2695 2645 
Q 2509 2841 2209 2841 
Q 1884 2841 1681 2658 
Q 1478 2475 1428 2131 
L 2881 2131 
z
" transform="scale(0.015625)"/>
      <path id="DejaVuSans-Bold-64" d="M 2919 2988 
L 2919 4863 
L 4044 4863 
L 4044 0 
L 2919 0 
L 2919 506 
Q 2688 197 2409 53 
Q 2131 -91 1766 -91 
Q 1119 -91 703 423 
Q 288 938 288 1747 
Q 288 2556 703 3070 
Q 1119 3584 1766 3584 
Q 2128 3584 2408 3439 
Q 2688 3294 2919 2988 
z
M 2181 722 
Q 2541 722 2730 984 
Q 2919 1247 2919 1747 
Q 2919 2247 2730 2509 
Q 2541 2772 2181 2772 
Q 1825 2772 1636 2509 
Q 1447 2247 1447 1747 
Q 1447 1247 1636 984 
Q 1825 722 2181 722 
z
" transform="scale(0.015625)"/>
     </defs>
     <use xlink:href="#DejaVuSans-Bold-43"/>
     <use xlink:href="#DejaVuSans-Bold-68" transform="translate(73.388672 0)"/>
     <use xlink:href="#DejaVuSans-Bold-72" transform="translate(144.580078 0)"/>
     <use xlink:href="#DejaVuSans-Bold-6f" transform="translate(193.896484 0)"/>
     <use xlink:href="#DejaVuSans-Bold-6d" transform="translate(262.597656 0)"/>
     <use xlink:href="#DejaVuSans-Bold-61" transform="translate(366.796875 0)"/>
     <use xlink:href="#DejaVuSans-Bold-74" transform="translate(434.277344 0)"/>
     <use xlink:href="#DejaVuSans-Bold-69" transform="translate(482.080078 0)"/>
     <use xlink:href="#DejaVuSans-Bold-6e" transform="translate(516.357422 0)"/>
     <use xlink:href="#DejaVuSans-Bold-2d" transform="translate(587.548828 0)"/>
     <use xlink:href="#DejaVuSans-Bold-43" transform="translate(629.052734 0)"/>
     <use xlink:href="#DejaVuSans-Bold-65" transform="translate(702.441406 0)"/>
     <use xlink:href="#DejaVuSans-Bold-6e" transform="translate(770.263672 0)"/>
     <use xlink:href="#DejaVuSans-Bold-74" transform="translate(841.455078 0)"/>
     <use xlink:href="#DejaVuSans-Bold-72" transform="translate(889.257812 0)"/>
     <use xlink:href="#DejaVuSans-Bold-65" transform="translate(938.574219 0)"/>
     <use xlink:href="#DejaVuSans-Bold-64" transform="translate(1006.396484 0)"/>
    </g>
   </g>
   <g id="text_4">
    <!-- Regulatory Reorganisation -->
    <g transform="translate(462.636328 289.2) scale(0.15 -0.15)">
     <defs>
      <path id="DejaVuSans-Bold-67" d="M 2919 594 
Q 2688 288 2409 144 
Q 2131 0 1766 0 
Q 1125 0 706 504 
Q 288 1009 288 1791 
Q 288 2575 706 3076 
Q 1125 3578 1766 3578 
Q 2131 3578 2409 3434 
Q 2688 3291 2919 2981 
L 2919 3500 
L 4044 3500 
L 4044 353 
Q 4044 -491 3511 -936 
Q 2978 -1381 1966 -1381 
Q 1638 -1381 1331 -1331 
Q 1025 -1281 716 -1178 
L 716 -306 
Q 1009 -475 1290 -558 
Q 1572 -641 1856 -641 
Q 2406 -641 2662 -400 
Q 2919 -159 2919 353 
L 2919 594 
z
M 2181 2772 
Q 1834 2772 1640 2515 
Q 1447 2259 1447 1791 
Q 1447 1309 1634 1061 
Q 1822 813 2181 813 
Q 2531 813 2725 1069 
Q 2919 1325 2919 1791 
Q 2919 2259 2725 2515 
Q 2531 2772 2181 2772 
z
" transform="scale(0.015625)"/>
      <path id="DejaVuSans-Bold-75" d="M 500 1363 
L 500 3500 
L 1625 3500 
L 1625 3150 
Q 1625 2866 1622 2436 
Q 1619 2006 1619 1863 
Q 1619 1441 1641 1255 
Q 1663 1069 1716 984 
Q 1784 875 1895 815 
Q 2006 756 2150 756 
Q 2500 756 2700 1025 
Q 2900 1294 2900 1772 
L 2900 3500 
L 4019 3500 
L 4019 0 
L 2900 0 
L 2900 506 
Q 2647 200 2364 54 
Q 2081 -91 1741 -91 
Q 1134 -91 817 281 
Q 500 653 500 1363 
z
" transform="scale(0.015625)"/>
      <path id="DejaVuSans-Bold-6c" d="M 538 4863 
L 1656 4863 
L 1656 0 
L 538 0 
L 538 4863 
z
" transform="scale(0.015625)"/>
      <path id="DejaVuSans-Bold-79" d="M 78 3500 
L 1197 3500 
L 2138 1125 
L 2938 3500 
L 4056 3500 
L 2584 -331 
Q 2363 -916 2067 -1148 
Q 1772 -1381 1288 -1381 
L 641 -1381 
L 641 -647 
L 991 -647 
Q 1275 -647 1404 -556 
Q 1534 -466 1606 -231 
L 1638 -134 
L 78 3500 
z
" transform="scale(0.015625)"/>
      <path id="DejaVuSans-Bold-20" transform="scale(0.015625)"/>
      <path id="DejaVuSans-Bold-73" d="M 3272 3391 
L 3272 2541 
Q 2913 2691 2578 2766 
Q 2244 2841 1947 2841 
Q 1628 2841 1473 2761 
Q 1319 2681 1319 2516 
Q 1319 2381 1436 2309 
Q 1553 2238 1856 2203 
L 2053 2175 
Q 2913 2066 3209 1816 
Q 3506 1566 3506 1031 
Q 3506 472 3093 190 
Q 2681 -91 1863 -91 
Q 1516 -91 1145 -36 
Q 775 19 384 128 
L 384 978 
Q 719 816 1070 734 
Q 1422 653 1784 653 
Q 2113 653 2278 743 
Q 2444 834 2444 1013 
Q 2444 1163 2330 1236 
Q 2216 1309 1875 1350 
L 1678 1375 
Q 931 1469 631 1722 
Q 331 1975 331 2491 
Q 331 3047 712 3315 
Q 1094 3584 1881 3584 
Q 2191 3584 2531 3537 
Q 2872 3491 3272 3391 
z
" transform="scale(0.015625)"/>
     </defs>
     <use xlink:href="#DejaVuSans-Bold-52"/>
     <use xlink:href="#DejaVuSans-Bold-65" transform="translate(77.001953 0)"/>
     <use xlink:href="#DejaVuSans-Bold-67" transform="translate(144.824219 0)"/>
     <use xlink:href="#DejaVuSans-Bold-75" transform="translate(216.40625 0)"/>
     <use xlink:href="#DejaVuSans-Bold-6c" transform="translate(287.597656 0)"/>
     <use xlink:href="#DejaVuSans-Bold-61" transform="translate(321.875 0)"/>
     <use xlink:href="#DejaVuSans-Bold-74" transform="translate(389.355469 0)"/>
     <use xlink:href="#DejaVuSans-Bold-6f" transform="translate(437.158203 0)"/>
     <use xlink:href="#DejaVuSans-Bold-72" transform="translate(505.859375 0)"/>
     <use xlink:href="#DejaVuSans-Bold-79" transform="translate(555.175781 0)"/>
     <use xlink:href="#DejaVuSans-Bold-20" transform="translate(620.361328 0)"/>
     <use xlink:href="#DejaVuSans-Bold-52" transform="translate(655.175781 0)"/>
     <use xlink:href="#DejaVuSans-Bold-65" transform="translate(732.177734 0)"/>
     <use xlink:href="#DejaVuSans-Bold-6f" transform="translate(800 0)"/>
     <use xlink:href="#DejaVuSans-Bold-72" transform="translate(868.701172 0)"/>
     <use xlink:href="#DejaVuSans-Bold-67" transform="translate(918.017578 0)"/>
     <use xlink:href="#DejaVuSans-Bold-61" transform="translate(989.599609 0)"/>
     <use xlink:href="#DejaVuSans-Bold-6e" transform="translate(1057.080078 0)"/>
     <use xlink:href="#DejaVuSans-Bold-69" transform="translate(1128.271484 0)"/>
     <use xlink:href="#DejaVuSans-Bold-73" transform="translate(1162.548828 0)"/>
     <use xlink:href="#DejaVuSans-Bold-61" transform="translate(1222.070312 0)"/>
     <use xlink:href="#DejaVuSans-Bold-74" transform="translate(1289.550781 0)"/>
     <use xlink:href="#DejaVuSans-Bold-69" transform="translate(1337.353516 0)"/>
     <use xlink:href="#DejaVuSans-Bold-6f" transform="translate(1371.630859 0)"/>
     <use xlink:href="#DejaVuSans-Bold-6e" transform="translate(1440.332031 0)"/>
    </g>
   </g>
   <g id="text_5">
    <!-- Conserved 12-Gene Core -->
    <g style="fill: #2980b9" transform="translate(500.449687 372.72) scale(0.12 -0.12)">
     <defs>
      <path id="DejaVuSans-43" d="M 4122 4306 
L 4122 3641 
Q 3803 3938 3442 4084 
Q 3081 4231 2675 4231 
Q 1875 4231 1450 3742 
Q 1025 3253 1025 2328 
Q 1025 1406 1450 917 
Q 1875 428 2675 428 
Q 3081 428 3442 575 
Q 3803 722 4122 1019 
L 4122 359 
Q 3791 134 3420 21 
Q 3050 -91 2638 -91 
Q 1578 -91 968 557 
Q 359 1206 359 2328 
Q 359 3453 968 4101 
Q 1578 4750 2638 4750 
Q 3056 4750 3426 4639 
Q 3797 4528 4122 4306 
z
" transform="scale(0.015625)"/>
      <path id="DejaVuSans-6f" d="M 1959 3097 
Q 1497 3097 1228 2736 
Q 959 2375 959 1747 
Q 959 1119 1226 758 
Q 1494 397 1959 397 
Q 2419 397 2687 759 
Q 2956 1122 2956 1747 
Q 2956 2369 2687 2733 
Q 2419 3097 1959 3097 
z
M 1959 3584 
Q 2709 3584 3137 3096 
Q 3566 2609 3566 1747 
Q 3566 888 3137 398 
Q 2709 -91 1959 -91 
Q 1206 -91 779 398 
Q 353 888 353 1747 
Q 353 2609 779 3096 
Q 1206 3584 1959 3584 
z
" transform="scale(0.015625)"/>
      <path id="DejaVuSans-6e" d="M 3513 2113 
L 3513 0 
L 2938 0 
L 2938 2094 
Q 2938 2591 2744 2837 
Q 2550 3084 2163 3084 
Q 1697 3084 1428 2787 
Q 1159 2491 1159 1978 
L 1159 0 
L 581 0 
L 581 3500 
L 1159 3500 
L 1159 2956 
Q 1366 3272 1645 3428 
Q 1925 3584 2291 3584 
Q 2894 3584 3203 3211 
Q 3513 2838 3513 2113 
z
" transform="scale(0.015625)"/>
      <path id="DejaVuSans-20" transform="scale(0.015625)"/>
      <path id="DejaVuSans-31" d="M 794 531 
L 1825 531 
L 1825 4091 
L 703 3866 
L 703 4441 
L 1819 4666 
L 2450 4666 
L 2450 531 
L 3481 531 
L 3481 0 
L 794 0 
L 794 531 
z
" transform="scale(0.015625)"/>
      <path id="DejaVuSans-32" d="M 1228 531 
L 3431 531 
L 3431 0 
L 469 0 
L 469 531 
Q 828 903 1448 1529 
Q 2069 2156 2228 2338 
Q 2531 2678 2651 2914 
Q 2772 3150 2772 3378 
Q 2772 3750 2511 3984 
Q 2250 4219 1831 4219 
Q 1534 4219 1204 4116 
Q 875 4013 500 3803 
L 500 4441 
Q 881 4594 1212 4672 
Q 1544 4750 1819 4750 
Q 2544 4750 2975 4387 
Q 3406 4025 3406 3419 
Q 3406 3131 3298 2873 
Q 3191 2616 2906 2266 
Q 2828 2175 2409 1742 
Q 1991 1309 1228 531 
z
" transform="scale(0.015625)"/>
      <path id="DejaVuSans-2d" d="M 313 2009 
L 1997 2009 
L 1997 1497 
L 313 1497 
L 313 2009 
z
" transform="scale(0.015625)"/>
      <path id="DejaVuSans-47" d="M 3809 666 
L 3809 1919 
L 2778 1919 
L 2778 2438 
L 4434 2438 
L 4434 434 
Q 4069 175 3628 42 
Q 3188 -91 2688 -91 
Q 1594 -91 976 548 
Q 359 1188 359 2328 
Q 359 3472 976 4111 
Q 1594 4750 2688 4750 
Q 3144 4750 3555 4637 
Q 3966 4525 4313 4306 
L 4313 3634 
Q 3963 3931 3569 4081 
Q 3175 4231 2741 4231 
Q 1884 4231 1454 3753 
Q 1025 3275 1025 2328 
Q 1025 1384 1454 906 
Q 1884 428 2741 428 
Q 3075 428 3337 486 
Q 3600 544 3809 666 
z
" transform="scale(0.015625)"/>
     </defs>
     <use xlink:href="#DejaVuSans-43"/>
     <use xlink:href="#DejaVuSans-6f" transform="translate(69.824219 0)"/>
     <use xlink:href="#DejaVuSans-6e" transform="translate(131.005859 0)"/>
     <use xlink:href="#DejaVuSans-73" transform="translate(194.384766 0)"/>
     <use xlink:href="#DejaVuSans-65" transform="translate(246.484375 0)"/>
     <use xlink:href="#DejaVuSans-72" transform="translate(308.007812 0)"/>
     <use xlink:href="#DejaVuSans-76" transform="translate(349.121094 0)"/>
     <use xlink:href="#DejaVuSans-65" transform="translate(408.300781 0)"/>
     <use xlink:href="#DejaVuSans-64" transform="translate(469.824219 0)"/>
     <use xlink:href="#DejaVuSans-20" transform="translate(533.300781 0)"/>
     <use xlink:href="#DejaVuSans-31" transform="translate(565.087891 0)"/>
     <use xlink:href="#DejaVuSans-32" transform="translate(628.710938 0)"/>
     <use xlink:href="#DejaVuSans-2d" transform="translate(692.333984 0)"/>
     <use xlink:href="#DejaVuSans-47" transform="translate(732.042969 0)"/>
     <use xlink:href="#DejaVuSans-65" transform="translate(809.533203 0)"/>
     <use xlink:href="#DejaVuSans-6e" transform="translate(871.056641 0)"/>
     <use xlink:href="#DejaVuSans-65" transform="translate(934.435547 0)"/>
     <use xlink:href="#DejaVuSans-20" transform="translate(995.958984 0)"/>
     <use xlink:href="#DejaVuSans-43" transform="translate(1027.746094 0)"/>
     <use xlink:href="#DejaVuSans-6f" transform="translate(1097.570312 0)"/>
     <use xlink:href="#DejaVuSans-72" transform="translate(1158.751953 0)"/>
     <use xlink:href="#DejaVuSans-65" transform="translate(1197.615234 0)"/>
    </g>
   </g>
   <g id="patch_6">
    <path d="M 719.301908 324 
Q 770.28737 324 819.036765 324 
" style="fill: none; stroke: #000000; stroke-width: 2; stroke-linecap: round"/>
    <path d="M 815.036765 322 
L 819.036765 324 
L 815.036765 326 
" style="fill: none; stroke: #000000; stroke-width: 2; stroke-linecap: round"/>
   </g>
   <g id="text_6">
    <!-- Adaptive State -->
    <g style="fill: #27ae60" transform="translate(876.11125 233.52) scale(0.16 -0.16)">
     <defs>
      <path id="DejaVuSans-Bold-41" d="M 3419 850 
L 1538 850 
L 1241 0 
L 31 0 
L 1759 4666 
L 3194 4666 
L 4922 0 
L 3713 0 
L 3419 850 
z
M 1838 1716 
L 3116 1716 
L 2478 3572 
L 1838 1716 
z
" transform="scale(0.015625)"/>
      <path id="DejaVuSans-Bold-70" d="M 1656 506 
L 1656 -1331 
L 538 -1331 
L 538 3500 
L 1656 3500 
L 1656 2988 
Q 1888 3294 2169 3439 
Q 2450 3584 2816 3584 
Q 3463 3584 3878 3070 
Q 4294 2556 4294 1747 
Q 4294 938 3878 423 
Q 3463 -91 2816 -91 
Q 2450 -91 2169 54 
Q 1888 200 1656 506 
z
M 2400 2772 
Q 2041 2772 1848 2508 
Q 1656 2244 1656 1747 
Q 1656 1250 1848 986 
Q 2041 722 2400 722 
Q 2759 722 2948 984 
Q 3138 1247 3138 1747 
Q 3138 2247 2948 2509 
Q 2759 2772 2400 2772 
z
" transform="scale(0.015625)"/>
      <path id="DejaVuSans-Bold-76" d="M 97 3500 
L 1216 3500 
L 2088 1081 
L 2956 3500 
L 4078 3500 
L 2700 0 
L 1472 0 
L 97 3500 
z
" transform="scale(0.015625)"/>
     </defs>
     <use xlink:href="#DejaVuSans-Bold-41"/>
     <use xlink:href="#DejaVuSans-Bold-64" transform="translate(77.392578 0)"/>
     <use xlink:href="#DejaVuSans-Bold-61" transform="translate(148.974609 0)"/>
     <use xlink:href="#DejaVuSans-Bold-70" transform="translate(216.455078 0)"/>
     <use xlink:href="#DejaVuSans-Bold-74" transform="translate(288.037109 0)"/>
     <use xlink:href="#DejaVuSans-Bold-69" transform="translate(335.839844 0)"/>
     <use xlink:href="#DejaVuSans-Bold-76" transform="translate(370.117188 0)"/>
     <use xlink:href="#DejaVuSans-Bold-65" transform="translate(435.302734 0)"/>
     <use xlink:href="#DejaVuSans-Bold-20" transform="translate(503.125 0)"/>
     <use xlink:href="#DejaVuSans-Bold-53" transform="translate(537.939453 0)"/>
     <use xlink:href="#DejaVuSans-Bold-74" transform="translate(609.960938 0)"/>
     <use xlink:href="#DejaVuSans-Bold-61" transform="translate(657.763672 0)"/>
     <use xlink:href="#DejaVuSans-Bold-74" transform="translate(725.244141 0)"/>
     <use xlink:href="#DejaVuSans-Bold-65" transform="translate(773.046875 0)"/>
    </g>
   </g>
   <g id="text_7">
    <!-- Metabolic -->
    <g transform="translate(914.369063 290.16525) scale(0.12 -0.12)">
     <defs>
      <path id="DejaVuSans-4d" d="M 628 4666 
L 1569 4666 
L 2759 1491 
L 3956 4666 
L 4897 4666 
L 4897 0 
L 4281 0 
L 4281 4097 
L 3078 897 
L 2444 897 
L 1241 4097 
L 1241 0 
L 628 0 
L 628 4666 
z
" transform="scale(0.015625)"/>
      <path id="DejaVuSans-62" d="M 3116 1747 
Q 3116 2381 2855 2742 
Q 2594 3103 2138 3103 
Q 1681 3103 1420 2742 
Q 1159 2381 1159 1747 
Q 1159 1113 1420 752 
Q 1681 391 2138 391 
Q 2594 391 2855 752 
Q 3116 1113 3116 1747 
z
M 1159 2969 
Q 1341 3281 1617 3432 
Q 1894 3584 2278 3584 
Q 2916 3584 3314 3078 
Q 3713 2572 3713 1747 
Q 3713 922 3314 415 
Q 2916 -91 2278 -91 
Q 1894 -91 1617 61 
Q 1341 213 1159 525 
L 1159 0 
L 581 0 
L 581 4863 
L 1159 4863 
L 1159 2969 
z
" transform="scale(0.015625)"/>
      <path id="DejaVuSans-6c" d="M 603 4863 
L 1178 4863 
L 1178 0 
L 603 0 
L 603 4863 
z
" transform="scale(0.015625)"/>
      <path id="DejaVuSans-63" d="M 3122 3366 
L 3122 2828 
Q 2878 2963 2633 3030 
Q 2388 3097 2138 3097 
Q 1578 3097 1268 2742 
Q 959 2388 959 1747 
Q 959 1106 1268 751 
Q 1578 397 2138 397 
Q 2388 397 2633 464 
Q 2878 531 3122 666 
L 3122 134 
Q 2881 22 2623 -34 
Q 2366 -91 2075 -91 
Q 1284 -91 818 406 
Q 353 903 353 1747 
Q 353 2603 823 3093 
Q 1294 3584 2113 3584 
Q 2378 3584 2631 3529 
Q 2884 3475 3122 3366 
z
" transform="scale(0.015625)"/>
     </defs>
     <use xlink:href="#DejaVuSans-4d"/>
     <use xlink:href="#DejaVuSans-65" transform="translate(86.279297 0)"/>
     <use xlink:href="#DejaVuSans-74" transform="translate(147.802734 0)"/>
     <use xlink:href="#DejaVuSans-61" transform="translate(187.011719 0)"/>
     <use xlink:href="#DejaVuSans-62" transform="translate(248.291016 0)"/>
     <use xlink:href="#DejaVuSans-6f" transform="translate(311.767578 0)"/>
     <use xlink:href="#DejaVuSans-6c" transform="translate(372.949219 0)"/>
     <use xlink:href="#DejaVuSans-69" transform="translate(400.732422 0)"/>
     <use xlink:href="#DejaVuSans-63" transform="translate(428.515625 0)"/>
    </g>
    <!-- Structural -->
    <g transform="translate(913.685625 303.602625) scale(0.12 -0.12)">
     <defs>
      <path id="DejaVuSans-75" d="M 544 1381 
L 544 3500 
L 1119 3500 
L 1119 1403 
Q 1119 906 1312 657 
Q 1506 409 1894 409 
Q 2359 409 2629 706 
Q 2900 1003 2900 1516 
L 2900 3500 
L 3475 3500 
L 3475 0 
L 2900 0 
L 2900 538 
Q 2691 219 2414 64 
Q 2138 -91 1772 -91 
Q 1169 -91 856 284 
Q 544 659 544 1381 
z
M 1991 3584 
L 1991 3584 
z
" transform="scale(0.015625)"/>
     </defs>
     <use xlink:href="#DejaVuSans-53"/>
     <use xlink:href="#DejaVuSans-74" transform="translate(63.476562 0)"/>
     <use xlink:href="#DejaVuSans-72" transform="translate(102.685547 0)"/>
     <use xlink:href="#DejaVuSans-75" transform="translate(143.798828 0)"/>
     <use xlink:href="#DejaVuSans-63" transform="translate(207.177734 0)"/>
     <use xlink:href="#DejaVuSans-74" transform="translate(262.158203 0)"/>
     <use xlink:href="#DejaVuSans-75" transform="translate(301.367188 0)"/>
     <use xlink:href="#DejaVuSans-72" transform="translate(364.746094 0)"/>
     <use xlink:href="#DejaVuSans-61" transform="translate(405.859375 0)"/>
     <use xlink:href="#DejaVuSans-6c" transform="translate(467.138672 0)"/>
    </g>
    <!-- Signalling -->
    <g transform="translate(914.003438 317.04) scale(0.12 -0.12)">
     <defs>
      <path id="DejaVuSans-67" d="M 2906 1791 
Q 2906 2416 2648 2759 
Q 2391 3103 1925 3103 
Q 1463 3103 1205 2759 
Q 947 2416 947 1791 
Q 947 1169 1205 825 
Q 1463 481 1925 481 
Q 2391 481 2648 825 
Q 2906 1169 2906 1791 
z
M 3481 434 
Q 3481 -459 3084 -895 
Q 2688 -1331 1869 -1331 
Q 1566 -1331 1297 -1286 
Q 1028 -1241 775 -1147 
L 775 -588 
Q 1028 -725 1275 -790 
Q 1522 -856 1778 -856 
Q 2344 -856 2625 -561 
Q 2906 -266 2906 331 
L 2906 616 
Q 2728 306 2450 153 
Q 2172 0 1784 0 
Q 1141 0 747 490 
Q 353 981 353 1791 
Q 353 2603 747 3093 
Q 1141 3584 1784 3584 
Q 2172 3584 2450 3431 
Q 2728 3278 2906 2969 
L 2906 3500 
L 3481 3500 
L 3481 434 
z
" transform="scale(0.015625)"/>
     </defs>
     <use xlink:href="#DejaVuSans-53"/>
     <use xlink:href="#DejaVuSans-69" transform="translate(63.476562 0)"/>
     <use xlink:href="#DejaVuSans-67" transform="translate(91.259766 0)"/>
     <use xlink:href="#DejaVuSans-6e" transform="translate(154.736328 0)"/>
     <use xlink:href="#DejaVuSans-61" transform="translate(218.115234 0)"/>
     <use xlink:href="#DejaVuSans-6c" transform="translate(279.394531 0)"/>
     <use xlink:href="#DejaVuSans-6c" transform="translate(307.177734 0)"/>
     <use xlink:href="#DejaVuSans-69" transform="translate(334.960938 0)"/>
     <use xlink:href="#DejaVuSans-6e" transform="translate(362.744141 0)"/>
     <use xlink:href="#DejaVuSans-67" transform="translate(426.123047 0)"/>
    </g>
   </g>
   <g id="text_8">
    <!-- Predictive Separation -->
    <g transform="translate(876.106406 402.162406) scale(0.11 -0.11)">
     <defs>
      <path id="DejaVuSans-Bold-50" d="M 588 4666 
L 2584 4666 
Q 3475 4666 3951 4270 
Q 4428 3875 4428 3144 
Q 4428 2409 3951 2014 
Q 3475 1619 2584 1619 
L 1791 1619 
L 1791 0 
L 588 0 
L 588 4666 
z
M 1791 3794 
L 1791 2491 
L 2456 2491 
Q 2806 2491 2997 2661 
Q 3188 2831 3188 3144 
Q 3188 3456 2997 3625 
Q 2806 3794 2456 3794 
L 1791 3794 
z
" transform="scale(0.015625)"/>
      <path id="DejaVuSans-Bold-63" d="M 3366 3391 
L 3366 2478 
Q 3138 2634 2908 2709 
Q 2678 2784 2431 2784 
Q 1963 2784 1702 2511 
Q 1441 2238 1441 1747 
Q 1441 1256 1702 982 
Q 1963 709 2431 709 
Q 2694 709 2930 787 
Q 3166 866 3366 1019 
L 3366 103 
Q 3103 6 2833 -42 
Q 2563 -91 2291 -91 
Q 1344 -91 809 395 
Q 275 881 275 1747 
Q 275 2613 809 3098 
Q 1344 3584 2291 3584 
Q 2566 3584 2833 3536 
Q 3100 3488 3366 3391 
z
" transform="scale(0.015625)"/>
     </defs>
     <use xlink:href="#DejaVuSans-Bold-50"/>
     <use xlink:href="#DejaVuSans-Bold-72" transform="translate(73.291016 0)"/>
     <use xlink:href="#DejaVuSans-Bold-65" transform="translate(122.607422 0)"/>
     <use xlink:href="#DejaVuSans-Bold-64" transform="translate(190.429688 0)"/>
     <use xlink:href="#DejaVuSans-Bold-69" transform="translate(262.011719 0)"/>
     <use xlink:href="#DejaVuSans-Bold-63" transform="translate(296.289062 0)"/>
     <use xlink:href="#DejaVuSans-Bold-74" transform="translate(355.566406 0)"/>
     <use xlink:href="#DejaVuSans-Bold-69" transform="translate(403.369141 0)"/>
     <use xlink:href="#DejaVuSans-Bold-76" transform="translate(437.646484 0)"/>
     <use xlink:href="#DejaVuSans-Bold-65" transform="translate(502.832031 0)"/>
     <use xlink:href="#DejaVuSans-Bold-20" transform="translate(570.654297 0)"/>
     <use xlink:href="#DejaVuSans-Bold-53" transform="translate(605.46875 0)"/>
     <use xlink:href="#DejaVuSans-Bold-65" transform="translate(677.490234 0)"/>
     <use xlink:href="#DejaVuSans-Bold-70" transform="translate(745.3125 0)"/>
     <use xlink:href="#DejaVuSans-Bold-61" transform="translate(816.894531 0)"/>
     <use xlink:href="#DejaVuSans-Bold-72" transform="translate(884.375 0)"/>
     <use xlink:href="#DejaVuSans-Bold-61" transform="translate(933.691406 0)"/>
     <use xlink:href="#DejaVuSans-Bold-74" transform="translate(1001.171875 0)"/>
     <use xlink:href="#DejaVuSans-Bold-69" transform="translate(1048.974609 0)"/>
     <use xlink:href="#DejaVuSans-Bold-6f" transform="translate(1083.251953 0)"/>
     <use xlink:href="#DejaVuSans-Bold-6e" transform="translate(1151.953125 0)"/>
    </g>
    <!-- (p ≈ 1 × 10⁻¹⁶) -->
    <g transform="translate(898.338438 414.48) scale(0.11 -0.11)">
     <defs>
      <path id="DejaVuSans-Bold-28" d="M 2413 -844 
L 1484 -844 
Q 1006 -72 778 623 
Q 550 1319 550 2003 
Q 550 2688 779 3389 
Q 1009 4091 1484 4856 
L 2413 4856 
Q 2013 4116 1813 3408 
Q 1613 2700 1613 2009 
Q 1613 1319 1811 609 
Q 2009 -100 2413 -844 
z
" transform="scale(0.015625)"/>
      <path id="DejaVuSans-Bold-2248" d="M 4684 3309 
L 4684 2547 
Q 4353 2297 4073 2189 
Q 3794 2081 3494 2081 
Q 3159 2081 2713 2263 
Q 2669 2281 2644 2291 
Q 2622 2300 2575 2319 
Q 2091 2509 1797 2509 
Q 1522 2509 1253 2389 
Q 984 2269 678 2009 
L 678 2772 
Q 1006 3016 1286 3123 
Q 1566 3231 1869 3231 
Q 2213 3231 2672 3047 
Q 2703 3034 2719 3028 
Q 2744 3019 2788 3000 
Q 3272 2809 3566 2809 
Q 3834 2809 4098 2926 
Q 4363 3044 4684 3309 
z
M 4684 2003 
L 4684 1241 
Q 4353 991 4073 883 
Q 3794 775 3494 775 
Q 3159 775 2713 956 
Q 2669 975 2641 988 
Q 2622 994 2575 1013 
Q 2091 1203 1797 1203 
Q 1522 1203 1253 1084 
Q 984 966 678 703 
L 678 1466 
Q 1013 1716 1291 1823 
Q 1569 1931 1869 1931 
Q 2203 1931 2650 1750 
Q 2697 1731 2719 1722 
Q 2744 1713 2788 1697 
Q 3272 1503 3566 1503 
Q 3834 1503 4098 1620 
Q 4363 1738 4684 2003 
z
" transform="scale(0.015625)"/>
      <path id="DejaVuSans-Bold-31" d="M 750 831 
L 1813 831 
L 1813 3847 
L 722 3622 
L 722 4441 
L 1806 4666 
L 2950 4666 
L 2950 831 
L 4013 831 
L 4013 0 
L 750 0 
L 750 831 
z
" transform="scale(0.015625)"/>
      <path id="DejaVuSans-Bold-d7" d="M 4563 3359 
L 3206 2003 
L 4563 653 
L 4038 128 
L 2681 1478 
L 1325 128 
L 800 653 
L 2156 2003 
L 800 3359 
L 1325 3884 
L 2681 2528 
L 4038 3884 
L 4563 3359 
z
" transform="scale(0.015625)"/>
      <path id="DejaVuSans-Bold-30" d="M 2944 2338 
Q 2944 3213 2780 3570 
Q 2616 3928 2228 3928 
Q 1841 3928 1675 3570 
Q 1509 3213 1509 2338 
Q 1509 1453 1675 1090 
Q 1841 728 2228 728 
Q 2613 728 2778 1090 
Q 2944 1453 2944 2338 
z
M 4147 2328 
Q 4147 1169 3647 539 
Q 3147 -91 2228 -91 
Q 1306 -91 806 539 
Q 306 1169 306 2328 
Q 306 3491 806 4120 
Q 1306 4750 2228 4750 
Q 3147 4750 3647 4120 
Q 4147 3491 4147 2328 
z
" transform="scale(0.015625)"/>
      <path id="DejaVuSans-Bold-207b" d="M 428 3419 
L 2950 3419 
L 2950 3003 
L 428 3003 
L 428 3419 
z
" transform="scale(0.015625)"/>
      <path id="DejaVuSans-Bold-b9" d="M 441 2578 
L 1088 2578 
L 1088 4206 
L 384 4044 
L 384 4544 
L 1100 4697 
L 1806 4697 
L 1806 2578 
L 2444 2578 
L 2444 2088 
L 441 2088 
L 441 2578 
z
" transform="scale(0.015625)"/>
      <path id="DejaVuSans-Bold-2076" d="M 1422 3378 
Q 1228 3378 1131 3266 
Q 1034 3150 1034 2922 
Q 1034 2691 1131 2578 
Q 1228 2463 1422 2463 
Q 1619 2463 1716 2578 
Q 1813 2691 1813 2922 
Q 1813 3150 1716 3266 
Q 1619 3378 1422 3378 
z
M 2334 4638 
L 2334 4156 
Q 2153 4234 1991 4272 
Q 1831 4309 1678 4309 
Q 1347 4309 1163 4144 
Q 978 3975 947 3647 
Q 1075 3731 1222 3775 
Q 1369 3819 1544 3819 
Q 1984 3819 2253 3584 
Q 2522 3350 2522 2966 
Q 2522 2544 2222 2294 
Q 1922 2041 1416 2041 
Q 856 2041 550 2384 
Q 244 2728 244 3356 
Q 244 4016 600 4381 
Q 959 4750 1584 4750 
Q 1781 4750 1966 4722 
Q 2153 4694 2334 4638 
z
" transform="scale(0.015625)"/>
      <path id="DejaVuSans-Bold-29" d="M 513 -844 
Q 913 -100 1113 609 
Q 1313 1319 1313 2009 
Q 1313 2700 1113 3408 
Q 913 4116 513 4856 
L 1441 4856 
Q 1916 4091 2145 3389 
Q 2375 2688 2375 2003 
Q 2375 1319 2147 623 
Q 1919 -72 1441 -844 
L 513 -844 
z
" transform="scale(0.015625)"/>
     </defs>
     <use xlink:href="#DejaVuSans-Bold-28"/>
     <use xlink:href="#DejaVuSans-Bold-70" transform="translate(45.703125 0)"/>
     <use xlink:href="#DejaVuSans-Bold-20" transform="translate(117.285156 0)"/>
     <use xlink:href="#DejaVuSans-Bold-2248" transform="translate(152.099609 0)"/>
     <use xlink:href="#DejaVuSans-Bold-20" transform="translate(235.888672 0)"/>
     <use xlink:href="#DejaVuSans-Bold-31" transform="translate(270.703125 0)"/>
     <use xlink:href="#DejaVuSans-Bold-20" transform="translate(340.283203 0)"/>
     <use xlink:href="#DejaVuSans-Bold-d7" transform="translate(375.097656 0)"/>
     <use xlink:href="#DejaVuSans-Bold-20" transform="translate(458.886719 0)"/>
     <use xlink:href="#DejaVuSans-Bold-31" transform="translate(493.701172 0)"/>
     <use xlink:href="#DejaVuSans-Bold-30" transform="translate(563.28125 0)"/>
     <use xlink:href="#DejaVuSans-Bold-207b" transform="translate(632.861328 0)"/>
     <use xlink:href="#DejaVuSans-Bold-b9" transform="translate(685.644531 0)"/>
     <use xlink:href="#DejaVuSans-Bold-2076" transform="translate(729.443359 0)"/>
     <use xlink:href="#DejaVuSans-Bold-29" transform="translate(773.242188 0)"/>
    </g>
   </g>
   <g id="text_9">
    <!-- Oxidative stress reorganises chromatin architecture to define a conserved regulatory state across cell types -->
    <g style="fill: #34495e" transform="translate(278.249766 581.52) scale(0.11 -0.11)">
     <defs>
      <path id="DejaVuSans-68" d="M 3513 2113 
L 3513 0 
L 2938 0 
L 2938 2094 
Q 2938 2591 2744 2837 
Q 2550 3084 2163 3084 
Q 1697 3084 1428 2787 
Q 1159 2491 1159 1978 
L 1159 0 
L 581 0 
L 581 4863 
L 1159 4863 
L 1159 2956 
Q 1366 3272 1645 3428 
Q 1925 3584 2291 3584 
Q 2894 3584 3203 3211 
Q 3513 2838 3513 2113 
z
" transform="scale(0.015625)"/>
      <path id="DejaVuSans-6d" d="M 3328 2828 
Q 3544 3216 3844 3400 
Q 4144 3584 4550 3584 
Q 5097 3584 5394 3201 
Q 5691 2819 5691 2113 
L 5691 0 
L 5113 0 
L 5113 2094 
Q 5113 2597 4934 2840 
Q 4756 3084 4391 3084 
Q 3944 3084 3684 2787 
Q 3425 2491 3425 1978 
L 3425 0 
L 2847 0 
L 2847 2094 
Q 2847 2600 2669 2842 
Q 2491 3084 2119 3084 
Q 1678 3084 1418 2786 
Q 1159 2488 1159 1978 
L 1159 0 
L 581 0 
L 581 3500 
L 1159 3500 
L 1159 2956 
Q 1356 3278 1631 3431 
Q 1906 3584 2284 3584 
Q 2666 3584 2933 3390 
Q 3200 3197 3328 2828 
z
" transform="scale(0.015625)"/>
      <path id="DejaVuSans-66" d="M 2375 4863 
L 2375 4384 
L 1825 4384 
Q 1516 4384 1395 4259 
Q 1275 4134 1275 3809 
L 1275 3500 
L 2222 3500 
L 2222 3053 
L 1275 3053 
L 1275 0 
L 697 0 
L 697 3053 
L 147 3053 
L 147 3500 
L 697 3500 
L 697 3744 
Q 697 4328 969 4595 
Q 1241 4863 1831 4863 
L 2375 4863 
z
" transform="scale(0.015625)"/>
      <path id="DejaVuSans-79" d="M 2059 -325 
Q 1816 -950 1584 -1140 
Q 1353 -1331 966 -1331 
L 506 -1331 
L 506 -850 
L 844 -850 
Q 1081 -850 1212 -737 
Q 1344 -625 1503 -206 
L 1606 56 
L 191 3500 
L 800 3500 
L 1894 763 
L 2988 3500 
L 3597 3500 
L 2059 -325 
z
" transform="scale(0.015625)"/>
      <path id="DejaVuSans-70" d="M 1159 525 
L 1159 -1331 
L 581 -1331 
L 581 3500 
L 1159 3500 
L 1159 2969 
Q 1341 3281 1617 3432 
Q 1894 3584 2278 3584 
Q 2916 3584 3314 3078 
Q 3713 2572 3713 1747 
Q 3713 922 3314 415 
Q 2916 -91 2278 -91 
Q 1894 -91 1617 61 
Q 1341 213 1159 525 
z
M 3116 1747 
Q 3116 2381 2855 2742 
Q 2594 3103 2138 3103 
Q 1681 3103 1420 2742 
Q 1159 2381 1159 1747 
Q 1159 1113 1420 752 
Q 1681 391 2138 391 
Q 2594 391 2855 752 
Q 3116 1113 3116 1747 
z
" transform="scale(0.015625)"/>
     </defs>
     <use xlink:href="#DejaVuSans-4f"/>
     <use xlink:href="#DejaVuSans-78" transform="translate(78.710938 0)"/>
     <use xlink:href="#DejaVuSans-69" transform="translate(137.890625 0)"/>
     <use xlink:href="#DejaVuSans-64" transform="translate(165.673828 0)"/>
     <use xlink:href="#DejaVuSans-61" transform="translate(229.150391 0)"/>
     <use xlink:href="#DejaVuSans-74" transform="translate(290.429688 0)"/>
     <use xlink:href="#DejaVuSans-69" transform="translate(329.638672 0)"/>
     <use xlink:href="#DejaVuSans-76" transform="translate(357.421875 0)"/>
     <use xlink:href="#DejaVuSans-65" transform="translate(416.601562 0)"/>
     <use xlink:href="#DejaVuSans-20" transform="translate(478.125 0)"/>
     <use xlink:href="#DejaVuSans-73" transform="translate(509.912109 0)"/>
     <use xlink:href="#DejaVuSans-74" transform="translate(562.011719 0)"/>
     <use xlink:href="#DejaVuSans-72" transform="translate(601.220703 0)"/>
     <use xlink:href="#DejaVuSans-65" transform="translate(640.083984 0)"/>
     <use xlink:href="#DejaVuSans-73" transform="translate(701.607422 0)"/>
     <use xlink:href="#DejaVuSans-73" transform="translate(753.707031 0)"/>
     <use xlink:href="#DejaVuSans-20" transform="translate(805.806641 0)"/>
     <use xlink:href="#DejaVuSans-72" transform="translate(837.59375 0)"/>
     <use xlink:href="#DejaVuSans-65" transform="translate(876.457031 0)"/>
     <use xlink:href="#DejaVuSans-6f" transform="translate(937.980469 0)"/>
     <use xlink:href="#DejaVuSans-72" transform="translate(999.162109 0)"/>
     <use xlink:href="#DejaVuSans-67" transform="translate(1038.525391 0)"/>
     <use xlink:href="#DejaVuSans-61" transform="translate(1102.001953 0)"/>
     <use xlink:href="#DejaVuSans-6e" transform="translate(1163.28125 0)"/>
     <use xlink:href="#DejaVuSans-69" transform="translate(1226.660156 0)"/>
     <use xlink:href="#DejaVuSans-73" transform="translate(1254.443359 0)"/>
     <use xlink:href="#DejaVuSans-65" transform="translate(1306.542969 0)"/>
     <use xlink:href="#DejaVuSans-73" transform="translate(1368.066406 0)"/>
     <use xlink:href="#DejaVuSans-20" transform="translate(1420.166016 0)"/>
     <use xlink:href="#DejaVuSans-63" transform="translate(1451.953125 0)"/>
     <use xlink:href="#DejaVuSans-68" transform="translate(1506.933594 0)"/>
     <use xlink:href="#DejaVuSans-72" transform="translate(1570.3125 0)"/>
     <use xlink:href="#DejaVuSans-6f" transform="translate(1609.175781 0)"/>
     <use xlink:href="#DejaVuSans-6d" transform="translate(1670.357422 0)"/>
     <use xlink:href="#DejaVuSans-61" transform="translate(1767.769531 0)"/>
     <use xlink:href="#DejaVuSans-74" transform="translate(1829.048828 0)"/>
     <use xlink:href="#DejaVuSans-69" transform="translate(1868.257812 0)"/>
     <use xlink:href="#DejaVuSans-6e" transform="translate(1896.041016 0)"/>
     <use xlink:href="#DejaVuSans-20" transform="translate(1959.419922 0)"/>
     <use xlink:href="#DejaVuSans-61" transform="translate(1991.207031 0)"/>
     <use xlink:href="#DejaVuSans-72" transform="translate(2052.486328 0)"/>
     <use xlink:href="#DejaVuSans-63" transform="translate(2091.349609 0)"/>
     <use xlink:href="#DejaVuSans-68" transform="translate(2146.330078 0)"/>
     <use xlink:href="#DejaVuSans-69" transform="translate(2209.708984 0)"/>
     <use xlink:href="#DejaVuSans-74" transform="translate(2237.492188 0)"/>
     <use xlink:href="#DejaVuSans-65" transform="translate(2276.701172 0)"/>
     <use xlink:href="#DejaVuSans-63" transform="translate(2338.224609 0)"/>
     <use xlink:href="#DejaVuSans-74" transform="translate(2393.205078 0)"/>
     <use xlink:href="#DejaVuSans-75" transform="translate(2432.414062 0)"/>
     <use xlink:href="#DejaVuSans-72" transform="translate(2495.792969 0)"/>
     <use xlink:href="#DejaVuSans-65" transform="translate(2534.65625 0)"/>
     <use xlink:href="#DejaVuSans-20" transform="translate(2596.179688 0)"/>
     <use xlink:href="#DejaVuSans-74" transform="translate(2627.966797 0)"/>
     <use xlink:href="#DejaVuSans-6f" transform="translate(2667.175781 0)"/>
     <use xlink:href="#DejaVuSans-20" transform="translate(2728.357422 0)"/>
     <use xlink:href="#DejaVuSans-64" transform="translate(2760.144531 0)"/>
     <use xlink:href="#DejaVuSans-65" transform="translate(2823.621094 0)"/>
     <use xlink:href="#DejaVuSans-66" transform="translate(2885.144531 0)"/>
     <use xlink:href="#DejaVuSans-69" transform="translate(2920.349609 0)"/>
     <use xlink:href="#DejaVuSans-6e" transform="translate(2948.132812 0)"/>
     <use xlink:href="#DejaVuSans-65" transform="translate(3011.511719 0)"/>
     <use xlink:href="#DejaVuSans-20" transform="translate(3073.035156 0)"/>
     <use xlink:href="#DejaVuSans-61" transform="translate(3104.822266 0)"/>
     <use xlink:href="#DejaVuSans-20" transform="translate(3166.101562 0)"/>
     <use xlink:href="#DejaVuSans-63" transform="translate(3197.888672 0)"/>
     <use xlink:href="#DejaVuSans-6f" transform="translate(3252.869141 0)"/>
     <use xlink:href="#DejaVuSans-6e" transform="translate(3314.050781 0)"/>
     <use xlink:href="#DejaVuSans-73" transform="translate(3377.429688 0)"/>
     <use xlink:href="#DejaVuSans-65" transform="translate(3429.529297 0)"/>
     <use xlink:href="#DejaVuSans-72" transform="translate(3491.052734 0)"/>
     <use xlink:href="#DejaVuSans-76" transform="translate(3532.166016 0)"/>
     <use xlink:href="#DejaVuSans-65" transform="translate(3591.345703 0)"/>
     <use xlink:href="#DejaVuSans-64" transform="translate(3652.869141 0)"/>
     <use xlink:href="#DejaVuSans-20" transform="translate(3716.345703 0)"/>
     <use xlink:href="#DejaVuSans-72" transform="translate(3748.132812 0)"/>
     <use xlink:href="#DejaVuSans-65" transform="translate(3786.996094 0)"/>
     <use xlink:href="#DejaVuSans-67" transform="translate(3848.519531 0)"/>
     <use xlink:href="#DejaVuSans-75" transform="translate(3911.996094 0)"/>
     <use xlink:href="#DejaVuSans-6c" transform="translate(3975.375 0)"/>
     <use xlink:href="#DejaVuSans-61" transform="translate(4003.158203 0)"/>
     <use xlink:href="#DejaVuSans-74" transform="translate(4064.4375 0)"/>
     <use xlink:href="#DejaVuSans-6f" transform="translate(4103.646484 0)"/>
     <use xlink:href="#DejaVuSans-72" transform="translate(4164.828125 0)"/>
     <use xlink:href="#DejaVuSans-79" transform="translate(4205.941406 0)"/>
     <use xlink:href="#DejaVuSans-20" transform="translate(4265.121094 0)"/>
     <use xlink:href="#DejaVuSans-73" transform="translate(4296.908203 0)"/>
     <use xlink:href="#DejaVuSans-74" transform="translate(4349.007812 0)"/>
     <use xlink:href="#DejaVuSans-61" transform="translate(4388.216797 0)"/>
     <use xlink:href="#DejaVuSans-74" transform="translate(4449.496094 0)"/>
     <use xlink:href="#DejaVuSans-65" transform="translate(4488.705078 0)"/>
     <use xlink:href="#DejaVuSans-20" transform="translate(4550.228516 0)"/>
     <use xlink:href="#DejaVuSans-61" transform="translate(4582.015625 0)"/>
     <use xlink:href="#DejaVuSans-63" transform="translate(4643.294922 0)"/>
     <use xlink:href="#DejaVuSans-72" transform="translate(4698.275391 0)"/>
     <use xlink:href="#DejaVuSans-6f" transform="translate(4737.138672 0)"/>
     <use xlink:href="#DejaVuSans-73" transform="translate(4798.320312 0)"/>
     <use xlink:href="#DejaVuSans-73" transform="translate(4850.419922 0)"/>
     <use xlink:href="#DejaVuSans-20" transform="translate(4902.519531 0)"/>
     <use xlink:href="#DejaVuSans-63" transform="translate(4934.306641 0)"/>
     <use xlink:href="#DejaVuSans-65" transform="translate(4989.287109 0)"/>
     <use xlink:href="#DejaVuSans-6c" transform="translate(5050.810547 0)"/>
     <use xlink:href="#DejaVuSans-6c" transform="translate(5078.59375 0)"/>
     <use xlink:href="#DejaVuSans-20" transform="translate(5106.376953 0)"/>
     <use xlink:href="#DejaVuSans-74" transform="translate(5138.164062 0)"/>
     <use xlink:href="#DejaVuSans-79" transform="translate(5177.373047 0)"/>
     <use xlink:href="#DejaVuSans-70" transform="translate(5236.552734 0)"/>
     <use xlink:href="#DejaVuSans-65" transform="translate(5300.029297 0)"/>
     <use xlink:href="#DejaVuSans-73" transform="translate(5361.552734 0)"/>
    </g>
   </g>
  </g>
 </g>
 <defs>
  <clipPath id="pfb45e8e0ee">
   <rect x="10.8" y="10.8" width="1130.4" height="626.4"/>
  </clipPath>
 </defs>
</svg>
